:SAMPLES-PER-SECOND 30
:FULLY-SPECIFIED
:DEGREES
145
root  -40.9027 41.4671 -6.94132 -146.981 -87.4346 146.775
RightUpLeg  1.46494 -8.10218 -5.66842
RightLeg  5.18261 -0.913366 3.04162
RightFoot  -3.88878 0.0858988 -1.74429
RightToes  2.91037e-010 0 -3.6325e-017
Spine  1.22682 4.14844 7.5602
Spine1  17.3806 7.86264 -9.40479
HEad  -4.00565 -5.98953 1.46874
LeftShoulder1  9.44336 -14.0842 -46.8504
LeftArm  -10.2091 17.9666 -25.4309
LeftForeArm  25.5085 -13.5019 -4.60969
LeftHand  -0.244104 0.0205437 5.32207
RightShoulder  6.57803 11.5856 37.5635
RightArm  2.02282 33.0378 28.6961
RightForeArm  -15.7546 63.8885 25.5103
RightHand  -2.81948 7.9403 -24.5127
LeftUpLeg  -1.23709 2.77155 -0.321632
LeftLeg  0.68093 9.42645 -3.92298
LeftFoot  0.96323 -0.357263 3.25879
LeftToes  1.46425e-010 1.43544e-010 6.23391e-011
146
root  -40.9853 41.4631 -6.83887 -152.033 -87.0417 151.789
RightUpLeg  1.5216 -8.17869 -5.85846
RightLeg  5.27014 -0.379618 3.04858
RightFoot  -3.93135 0.0760854 -1.59523
RightToes  2.91037e-010 0 -3.6325e-017
Spine  1.56349 4.34671 8.10793
Spine1  16.9993 8.3118 -10.1453
HEad  -5.18 -6.37678 1.91232
LeftShoulder1  9.46117 -14.2086 -46.6028
LeftArm  -10.0917 17.9672 -25.3691
LeftForeArm  26.2554 -12.5813 -4.78004
LeftHand  -0.244104 0.0205437 5.32207
RightShoulder  6.53529 11.6876 37.0061
RightArm  3.79968 32.9988 28.3977
RightForeArm  -20.8622 62.2547 24.0698
RightHand  -2.65592 7.25977 -24.3371
LeftUpLeg  -1.0676 2.79266 -0.430441
LeftLeg  0.738963 9.87308 -3.97383
LeftFoot  0.800632 -0.374413 3.48017
LeftToes  1.46425e-010 1.43544e-010 6.23391e-011
147
root  -41.0717 41.4595 -6.75698 -151.799 -87.0155 151.704
RightUpLeg  1.4855 -8.2698 -6.02265
RightLeg  5.28894 -0.278935 3.06991
RightFoot  -4.00683 0.06666 -1.46265
RightToes  2.91037e-010 0 -3.6325e-017
Spine  1.74986 4.46829 8.51056
Spine1  16.7274 8.60117 -10.6596
HEad  -6.85919 -6.88335 2.22098
LeftShoulder1  9.50118 -14.2942 -46.5741
LeftArm  -10.0135 17.6229 -25.091
LeftForeArm  26.726 -12.2413 -4.84609
LeftHand  -0.244104 0.0205437 5.32207
RightShoulder  6.61755 11.7946 37.2355
RightArm  1.26108 31.3038 28.5377
RightForeArm  -15.5778 65.1019 27.3387
RightHand  -2.48919 6.67996 -23.9036
LeftUpLeg  -1.11409 2.70303 -0.590479
LeftLeg  0.75959 9.99395 -3.97221
LeftFoot  0.710805 -0.388037 3.67513
LeftToes  1.46425e-010 1.43544e-010 6.23391e-011
148
root  -41.1552 41.4564 -6.69401 -147.813 -87.2872 148.026
RightUpLeg  1.35817 -8.28176 -6.10803
RightLeg  5.23394 -0.584217 3.02613
RightFoot  -4.10826 0.0547993 -1.3039
RightToes  2.91037e-010 0 -3.6325e-017
Spine  1.5626 4.3568 8.3197
Spine1  16.6102 8.37726 -10.4497
HEad  -8.41824 -6.86958 1.96161
LeftShoulder1  9.55631 -14.2759 -46.9008
LeftArm  -10.1396 17.515 -24.6877
LeftForeArm  26.355 -12.9224 -4.69176
LeftHand  -0.244104 0.0205437 5.32207
RightShoulder  6.68759 11.7442 37.8181
RightArm  -2.88855 29.5466 30.1296
RightForeArm  -3.75201 69.5006 33.8528
RightHand  -2.17945 5.79438 -22.6401
LeftUpLeg  -1.34255 2.58985 -0.749669
LeftLeg  0.74595 9.79584 -3.9751
LeftFoot  0.662013 -0.397186 3.81264
LeftToes  1.46425e-010 1.43544e-010 6.23391e-011
149
root  -41.2354 41.4535 -6.64802 -142.667 -87.5927 143.135
RightUpLeg  1.29008 -8.2547 -6.15418
RightLeg  5.18458 -0.952397 2.96174
RightFoot  -4.2167 0.043443 -1.1415
RightToes  2.91037e-010 0 -3.6325e-017
Spine  1.27941 4.07027 7.77068
Spine1  16.4117 7.81017 -9.83451
HEad  -9.15367 -6.35786 1.26279
LeftShoulder1  9.61047 -14.2212 -47.3208
LeftArm  -10.2969 17.7709 -24.3465
LeftForeArm  25.4489 -14.3708 -4.39162
LeftHand  -0.244104 0.0205437 5.32207
RightShoulder  6.78979 11.734 38.4899
RightArm  -6.30094 28.4375 32.7009
RightForeArm  7.18571 72.731 41.2634
RightHand  -2.06709 5.38549 -22.2888
LeftUpLeg  -1.50898 2.55251 -0.842595
LeftLeg  0.730694 9.46893 -4.01688
LeftFoot  0.592387 -0.40121 3.87815
LeftToes  1.46425e-010 1.43544e-010 6.23391e-011
150
root  -41.3128 41.4526 -6.61645 -140.56 -87.7266 141.101
RightUpLeg  1.36443 -8.26136 -6.20023
RightLeg  5.17794 -1.07927 2.95188
RightFoot  -4.28701 0.0356423 -1.03354
RightToes  2.91037e-010 0 -3.6325e-017
Spine  1.09779 3.89207 7.39776
Spine1  16.233 7.44719 -9.43518
HEad  -9.19803 -5.88711 0.67379
LeftShoulder1  9.61176 -14.1986 -47.3888
LeftArm  -10.2883 17.7365 -24.3175
LeftForeArm  24.7438 -15.7938 -4.14877
LeftHand  -0.244104 0.0205437 5.32207
RightShoulder  7.02452 11.9373 39.3811
RightArm  -8.75208 27.85 34.4787
RightForeArm  12.9995 74.1684 45.9941
RightHand  -2.39306 6.33231 -23.6666
LeftUpLeg  -1.44944 2.61344 -0.843577
LeftLeg  0.697632 9.24708 -4.09287
LeftFoot  0.492705 -0.402475 3.90413
LeftToes  1.46425e-010 1.43544e-010 6.23391e-011
151
root  -41.3747 41.4537 -6.58736 -143.383 -87.669 143.855
RightUpLeg  1.51486 -8.28474 -6.23107
RightLeg  5.19361 -0.951791 2.97822
RightFoot  -4.29935 0.0312919 -0.978376
RightToes  2.91037e-010 0 -3.6325e-017
Spine  0.901014 3.95386 7.32729
Spine1  16.3432 7.48777 -9.3719
HEad  -9.14326 -5.72402 0.479267
LeftShoulder1  9.53787 -14.1822 -47.0617
LeftArm  -10.0966 16.9575 -24.6047
LeftForeArm  24.4018 -16.8639 -4.02026
LeftHand  -0.244104 0.0205437 5.32207
RightShoulder  7.24694 12.1675 40.0969
RightArm  -9.86804 28.0879 34.7874
RightForeArm  11.4133 73.5076 43.5504
RightHand  -2.72526 7.41122 -24.6725
LeftUpLeg  -1.24477 2.71529 -0.790775
LeftLeg  0.672 9.24599 -4.15611
LeftFoot  0.373697 -0.404738 3.94471
LeftToes  1.46425e-010 1.43544e-010 6.23391e-011
152
root  -41.4076 41.4533 -6.54861 -148.589 -87.4931 148.92
RightUpLeg  1.67288 -8.27929 -6.23951
RightLeg  5.20461 -0.708481 2.98621
RightFoot  -4.28429 0.0275146 -0.931317
RightToes  2.91037e-010 0 -3.6325e-017
Spine  0.695834 4.0841 7.34904
Spine1  16.5314 7.65835 -9.4565
HEad  -9.03746 -5.76876 0.618671
LeftShoulder1  9.44446 -14.1467 -46.6857
LeftArm  -9.76807 15.8763 -24.8611
LeftForeArm  24.0913 -18.0677 -3.89338
LeftHand  -0.244104 0.0205437 5.32207
RightShoulder  7.20643 12.1761 39.8247
RightArm  -8.46859 29.5815 34.6697
RightForeArm  1.72665 69.6764 33.7222
RightHand  -2.69249 7.54215 -24.1359
LeftUpLeg  -1.05055 2.79526 -0.746002
LeftLeg  0.744647 9.42962 -4.15787
LeftFoot  0.226141 -0.409327 4.01655
LeftToes  1.46425e-010 1.43544e-010 6.23391e-011
153
root  -41.4243 41.4499 -6.50546 -152.968 -87.2792 153.128
RightUpLeg  1.84956 -8.26908 -6.26941
RightLeg  5.18933 -0.434785 2.98231
RightFoot  -4.28144 0.0241147 -0.889345
RightToes  2.91037e-010 0 -3.6325e-017
Spine  0.704029 4.14902 7.42145
Spine1  16.3769 7.80247 -9.74007
HEad  -8.66137 -6.17013 0.954747
LeftShoulder1  9.40523 -14.1479 -46.4836
LeftArm  -9.2174 15.0424 -24.7471
LeftForeArm  23.7639 -19.8885 -3.72857
LeftHand  -0.244104 0.0205437 5.32207
RightShoulder  6.94904 12.046 38.614
RightArm  -4.6163 31.5081 34.8559
RightForeArm  -10.1778 63.6738 24.8086
RightHand  -2.40802 6.78045 -22.9782
LeftUpLeg  -0.89531 2.83071 -0.745749
LeftLeg  0.903205 9.68281 -4.10769
LeftFoot  0.0667066 -0.413966 4.08803
LeftToes  1.46425e-010 1.43544e-010 6.23391e-011
154
root  -41.4518 41.4468 -6.47415 -154.511 -87.1287 154.542
RightUpLeg  2.03865 -8.31209 -6.3661
RightLeg  5.14051 -0.209598 2.99824
RightFoot  -4.30986 0.0228448 -0.87971
RightToes  2.91037e-010 0 -3.6325e-017
Spine  0.964197 4.23377 7.6311
Spine1  15.9865 8.05473 -10.3009
HEad  -8.6586 -7.29167 1.17806
LeftShoulder1  9.4322 -14.2271 -46.4064
LeftArm  -8.62265 14.2779 -24.3058
LeftForeArm  23.8859 -22.1302 -3.6701
LeftHand  -0.244104 0.0205437 5.32207
RightShoulder  6.76581 12.0253 37.5373
RightArm  -1.16422 32.099 34.8198
RightForeArm  -17.733 60.0949 21.574
RightHand  -2.09498 5.56245 -22.2415
LeftUpLeg  -0.738643 2.81413 -0.805848
LeftLeg  0.980872 9.86292 -4.0682
LeftFoot  -0.0350454 -0.416929 4.13401
LeftToes  1.46425e-010 1.43544e-010 6.23391e-011
155
root  -41.4934 41.446 -6.46016 -152.136 -87.181 152.181
RightUpLeg  2.14363 -8.3996 -6.5011
RightLeg  5.0824 -0.207973 3.01612
RightFoot  -4.37214 0.0225171 -0.88398
RightToes  2.91037e-010 0 -3.6325e-017
Spine  1.24201 4.33905 7.8234
Spine1  15.7684 8.35223 -10.8539
HEad  -10.0498 -8.87208 0.76253
LeftShoulder1  9.47722 -14.3203 -46.3836
LeftArm  -8.77779 13.317 -23.8291
LeftForeArm  24.8631 -24.3974 -3.89292
LeftHand  -0.244104 0.0205437 5.32207
RightShoulder  6.7847 12.1042 37.4396
RightArm  -1.21023 30.8213 34.3626
RightForeArm  -16.3583 61.5082 22.9942
RightHand  -1.98242 5.028 -22.1162
LeftUpLeg  -0.647548 2.73244 -0.927084
LeftLeg  0.879962 9.83354 -4.07252
LeftFoot  -0.0282312 -0.418979 4.16535
LeftToes  1.46425e-010 1.43544e-010 6.23391e-011
156
root  -41.5268 41.4461 -6.45668 -146.121 -87.4779 146.364
RightUpLeg  2.06873 -8.44764 -6.56688
RightLeg  5.03613 -0.550084 2.99884
RightFoot  -4.44129 0.0201101 -0.855228
RightToes  2.91037e-010 0 -3.6325e-017
Spine  1.37258 4.23846 7.73144
Spine1  15.6929 8.32288 -11.0675
HEad  -12.5073 -9.90111 -0.553885
LeftShoulder1  9.49024 -14.3419 -46.3912
LeftArm  -10.1856 12.6219 -23.4979
LeftForeArm  26.3557 -26.7433 -4.33588
LeftHand  -0.244104 0.0205437 5.32207
RightShoulder  6.90002 12.0965 38.1742
RightArm  -3.86136 28.9801 34.51
RightForeArm  -7.64736 65.6903 27.3728
RightHand  -1.96971 5.0865 -21.8635
LeftUpLeg  -0.764023 2.60659 -1.05336
LeftLeg  0.718303 9.56495 -4.08293
LeftFoot  0.0502264 -0.420562 4.18809
LeftToes  1.46425e-010 1.43544e-010 6.23391e-011
